<svg width="113" height="32" viewBox="0 0 113 32" fill="none" xmlns="http://www.w3.org/2000/svg">
<mask id="mask0_20819_82384" style="mask-type:luminance" maskUnits="userSpaceOnUse" x="6" y="5" width="34" height="27">
<path d="M6.15474 5.21216H39.4288V32H6.15474V5.21216Z" fill="white"/>
</mask>
<g mask="url(#mask0_20819_82384)">
<mask id="mask1_20819_82384" style="mask-type:luminance" maskUnits="userSpaceOnUse" x="6" y="5" width="34" height="27">
<path d="M18.4084 5.21216H36.0339C37.0963 5.21216 38.0948 5.72339 38.7139 6.5821C39.333 7.44481 39.5047 8.55115 39.1692 9.55764L33.1343 27.6545C32.2716 30.2506 29.8432 32 27.1073 32H9.48175C8.41934 32 7.42483 31.4887 6.80177 30.63C6.1827 29.7673 6.01095 28.661 6.35045 27.6545L12.3814 9.55764C13.2441 6.96153 15.6725 5.21216 18.4084 5.21216Z" fill="white"/>
</mask>
<g mask="url(#mask1_20819_82384)">
<path d="M4.90062 5.21216H40.5791V32H4.90062V5.21216Z" fill="#E8A625"/>
</g>
</g>
<mask id="mask2_20819_82384" style="mask-type:luminance" maskUnits="userSpaceOnUse" x="0" y="0" width="37" height="28">
<path d="M36.8088 0H0V27.6066H36.8088V0Z" fill="white"/>
</mask>
<g mask="url(#mask2_20819_82384)">
<mask id="mask3_20819_82384" style="mask-type:luminance" maskUnits="userSpaceOnUse" x="1" y="0" width="34" height="28">
<path d="M1.25412 0.283569H34.5282V27.0674H1.25412V0.283569Z" fill="white"/>
</mask>
<g mask="url(#mask3_20819_82384)">
<mask id="mask4_20819_82384" style="mask-type:luminance" maskUnits="userSpaceOnUse" x="1" y="0" width="34" height="28">
<path d="M13.5078 0.283569H31.1333C32.1957 0.283569 33.1942 0.790809 33.8133 1.65351C34.4324 2.51223 34.6041 3.62256 34.2686 4.62905L28.2337 22.7219C27.371 25.318 24.9426 27.0674 22.2067 27.0674H4.58114C3.51873 27.0674 2.52422 26.5602 1.90116 25.6974C1.28209 24.8387 1.11434 23.7284 1.44984 22.7219L7.48079 4.62905C8.34749 2.03294 10.7758 0.283569 13.5078 0.283569Z" fill="white"/>
</mask>
<g mask="url(#mask4_20819_82384)">
<path d="M2.28882e-05 0.283569H35.6825V27.0674H2.28882e-05V0.283569Z" fill="#F5C965"/>
</g>
</g>
</g>
<path d="M52.5838 9.22059H45.7141V5.17865H64.4221V9.22059H57.5524V26.6504H52.5838V9.22059Z" fill="#E8A625"/>
<path d="M76.8378 5.17865C78.743 5.17865 80.3925 5.49817 81.7904 6.13721C83.1963 6.76827 84.2747 7.66692 85.0335 8.83716C85.7884 9.99942 86.1678 11.3774 86.1678 12.975C86.1678 14.5526 85.7884 15.9265 85.0335 17.0968C84.2747 18.271 83.1963 19.1697 81.7904 19.7967C80.3925 20.4158 78.743 20.7233 76.8378 20.7233H72.5083V26.6504H67.5398V5.17865H76.8378ZM76.5662 16.6814C78.056 16.6814 79.1903 16.3619 79.9691 15.7228C80.744 15.0758 81.1354 14.1572 81.1354 12.975C81.1354 11.7608 80.744 10.8342 79.9691 10.1951C79.1903 9.5481 78.056 9.22059 76.5662 9.22059H72.5083V16.6814H76.5662Z" fill="#E8A625"/>
<path d="M90.4492 5.17865H100.211C102.543 5.17865 104.604 5.62598 106.393 6.52064C108.183 7.40731 109.573 8.65743 110.563 10.275C111.554 11.8846 112.049 13.7658 112.049 15.9145C112.049 18.0673 111.554 19.9525 110.563 21.5701C109.573 23.1796 108.183 24.4298 106.393 25.3244C104.604 26.2111 102.543 26.6504 100.211 26.6504H90.4492V5.17865ZM99.9709 22.5766C102.112 22.5766 103.821 21.9814 105.099 20.7872C106.377 19.585 107.016 17.9595 107.016 15.9145C107.016 13.8696 106.377 12.252 105.099 11.0578C103.821 9.85563 102.112 9.25254 99.9709 9.25254H95.4178V22.5766H99.9709Z" fill="#E8A625"/>
</svg>
